# xmcd CD database file
#
# Track frame offsets:
#	150
#	12096
#	31119
#	45343
#	59431
#
# Disc length: 1095 seconds
#
# Revision: 0
# Processed by: cddbd v1.5.2PL0 Copyright (c) Steve Scherf et al.
# Submitted via: CDex 1.70beta2
#
DISCID=2f044505
DTITLE=Gratdjo - Swing Manouche
DYEAR=2007
DGENRE=Jazz
TTITLE0=Just one for Babik
TTITLE1=I've found a new baby
TTITLE2=Marseillaise
TTITLE3=Minor Swing
TTITLE4=Les Yeux Noirs
EXTD=YEAR: 2007
EXTT0=
EXTT1=
EXTT2=
EXTT3=
EXTT4=
PLAYORDER=
